<svg viewBox="0 0 120 120" xmlns="http://www.w3.org/2000/svg" xmlns:xlink="http://www.w3.org/1999/xlink" width="120.000000" height="120.000000" fill="none" customFrame="#000000">
	<mask id="mask_0" width="84.924011" height="84.924011" x="15.140381" y="16.820312" maskUnits="userSpaceOnUse">
		<g filter="url(#pixso_custom_mask_type_outline)">
			<circle id="蒙版" cx="57.6023865" cy="59.2823181" r="42.4620056" fill="rgb(255,255,255)" />
			<circle id="蒙版" cx="57.6023865" cy="59.2823181" r="41.9620056" stroke="rgb(151,151,151)" stroke-opacity="0" stroke-width="1" />
		</g>
	</mask>
	<defs>
		<clipPath id="clipPath_0">
			<rect width="120.000000" height="120.000000" x="0.000000" y="0.000000" fill="rgb(255,255,255)" />
		</clipPath>
		<clipPath id="clipPath_1">
			<rect width="120.000000" height="120.000000" x="0.000000" y="0.000000" fill="rgb(255,255,255)" />
		</clipPath>
		<linearGradient id="paint_linear_0" x1="61.2720032" x2="91.7539902" y1="17.7482109" y2="106.931313" gradientUnits="userSpaceOnUse">
			<stop stop-color="rgb(255,255,255)" offset="0" stop-opacity="0.400000006" />
			<stop stop-color="rgb(161,167,179)" offset="1" stop-opacity="0.400000006" />
		</linearGradient>
		<filter id="pixso_custom_mask_type_outline">
			<feColorMatrix type="matrix" values="0 0 0 0 1 0 0 0 0 1 0 0 0 0 1 0 0 0 1 0 " />
		</filter>
	</defs>
	<rect id="容器 1" width="120.000000" height="120.000000" x="0.000000" y="0.000000" />
	<g id="组件集 3" customFrame="url(#clipPath_0)">
		<rect id="组件集 3" width="120.000000" height="120.000000" x="0.000000" y="0.000000" fill="rgb(255,255,255)" fill-opacity="0" />
		<rect id="矩形" width="120.000000" height="120.000000" x="0.000000" y="0.000000" opacity="0" />
		<g id="EmptyPage/08 NoInstallationPackage" customFrame="url(#clipPath_1)">
			<rect id="EmptyPage/08 NoInstallationPackage" width="120.000000" height="120.000000" x="0.000000" y="0.000000" />
			<g id="编组">
				<g id="椭圆形 + 椭圆形备份 13 + 椭圆形备份 16 + 椭圆形备份 14 + 椭圆形备份 15 蒙版">
					<path id="形状结合" d="M99.1222 50.346C95.0182 31.1858 77.9878 16.8201 57.6021 16.8201C34.151 16.8201 15.1401 35.831 15.1401 59.2821C15.1401 70.6799 19.6308 81.0288 26.9395 88.656C30.5055 87.7278 34.3275 86.5287 38.3263 85.087L39.3361 84.7192C40.0117 84.4706 40.6921 84.2152 41.3769 83.9532L42.4074 83.5552L42.9251 83.3526L43.965 82.9399L45.0108 82.5175L46.0623 82.0856C46.9408 81.7216 47.8248 81.3478 48.7138 80.9643L49.7828 80.4996L50.8561 80.0257C53.0071 79.0688 55.1826 78.0577 57.3727 76.9959L58.4689 76.4608C59.6427 75.8839 60.8203 75.2926 61.9999 74.6876L61.9999 76.8466C57.6341 79.063 53.3367 81.0727 49.1743 82.8601L47.4695 83.5828C40.6626 86.4317 34.2479 88.6691 28.5236 90.2252C36.1216 97.3681 46.3508 101.744 57.6021 101.744C81.0533 101.744 100.064 82.7333 100.064 59.2821C100.064 56.987 99.882 54.7343 99.5315 52.5379C93.0711 58.0853 84.6751 64.0171 74.9999 69.7256L74.9999 67.4889C76.2864 66.7209 77.5521 65.9475 78.7951 65.1703L79.7882 64.5454L80.7713 63.9191C81.5863 63.3965 82.3905 62.8726 83.1835 62.3478L84.1296 61.7177C84.4431 61.5075 84.7548 61.2972 85.0646 61.0868L86.4457 60.1397L87.3519 59.5079C87.952 59.0867 88.5442 58.6654 89.1281 58.2443L89.9977 57.6128C93.3458 55.1647 96.4082 52.727 99.1222 50.346Z" opacity="0.300000012" fill="rgb(161,167,179)" fill-rule="evenodd" />
					<path id="形状结合" d="M57.6021 16.8201C77.9878 16.8201 95.0182 31.1858 99.1222 50.346C96.4082 52.727 93.3458 55.1647 89.9977 57.6128L89.1281 58.2443C88.5442 58.6654 87.952 59.0867 87.3519 59.5079L86.4457 60.1397L85.0646 61.0868C84.7548 61.2972 84.4431 61.5075 84.1296 61.7177L83.1835 62.3478C82.3905 62.8726 81.5863 63.3965 80.7713 63.9191L79.7882 64.5454L78.7951 65.1703C77.5521 65.9475 76.2864 66.7209 74.9999 67.4889L74.9999 69.7256C84.6751 64.0171 93.0711 58.0853 99.5315 52.5379C99.882 54.7343 100.064 56.987 100.064 59.2821C100.064 82.7333 81.0533 101.744 57.6021 101.744C46.3508 101.744 36.1216 97.3681 28.5236 90.2252C34.2479 88.6691 40.6626 86.4317 47.4695 83.5828L49.1743 82.8601C53.3367 81.0727 57.6341 79.063 61.9999 76.8466L61.9999 74.6876C60.8203 75.2926 59.6427 75.8839 58.4689 76.4608L57.3727 76.9959C55.1826 78.0577 53.0071 79.0688 50.8561 80.0257L49.7828 80.4996L48.7138 80.9643C47.8248 81.3478 46.9408 81.7216 46.0623 82.0856L45.0108 82.5175L43.965 82.9399L42.9251 83.3526L42.4074 83.5552L41.3769 83.9532C40.6921 84.2152 40.0117 84.4706 39.3361 84.7192L38.3263 85.087C34.3275 86.5287 30.5055 87.7278 26.9395 88.656C19.6308 81.0288 15.1401 70.6799 15.1401 59.2821C15.1401 35.831 34.151 16.8201 57.6021 16.8201ZM98.0175 49.9827Q97.6822 48.5192 97.2424 47.0879L97.2424 47.0877L97.2378 47.0727Q96.7243 45.4038 96.0686 43.7785Q95.5223 42.4245 94.8835 41.1157Q93.9915 39.2884 92.9189 37.5493Q92.1316 36.2727 91.2567 35.0592Q90.1063 33.4635 88.8044 31.9771Q87.6439 30.652 86.3805 29.4337L86.3793 29.4325L86.3782 29.4314Q85.1547 28.2517 83.8347 27.172Q82.2796 25.9001 80.6172 24.7887L80.6169 24.7885L80.6165 24.7882Q79.3972 23.9732 78.1202 23.2445Q76.3623 22.2414 74.5237 21.4185L74.5066 21.4109Q73.1604 20.8091 71.771 20.304Q70.2281 19.743 68.6505 19.3079Q66.7972 18.7968 64.8961 18.4594Q64.1056 18.3192 63.3109 18.2097L63.3076 18.2092L63.3073 18.2092L63.3072 18.2092Q60.4814 17.8201 57.6021 17.8201Q54.5276 17.8201 51.5181 18.263Q50.3769 18.4309 49.245 18.6625Q47.223 19.0763 45.2621 19.6867L45.262 19.6868L45.2617 19.6868Q43.333 20.2873 41.4636 21.078Q39.8946 21.7416 38.3907 22.5293L38.3906 22.5293Q36.3458 23.6003 34.421 24.9006Q32.9012 25.9274 31.4829 27.0791L31.4827 27.0793L31.4825 27.0794Q29.813 28.4352 28.2841 29.9641Q26.7555 31.4926 25.4 33.1617L25.3999 33.1619Q24.2477 34.5807 23.2206 36.101Q21.9199 38.0263 20.8487 40.0717L20.8486 40.072Q20.0613 41.5753 19.398 43.1436Q18.6069 45.014 18.0062 46.9437Q17.3961 48.9038 16.9825 50.925Q16.7509 52.057 16.5829 53.1984L16.5829 53.1988Q16.1401 56.2079 16.1401 59.2821Q16.1401 62.3132 16.5707 65.2817L16.5712 65.285Q16.7261 66.3529 16.9368 67.4127Q17.3335 69.4081 17.9217 71.3455L17.9218 71.3457Q18.4852 73.2013 19.2243 75.0036Q19.8517 76.5335 20.5969 78.0038Q21.6138 80.01 22.85 81.9051Q23.8035 83.3667 24.8721 84.7387L24.8799 84.7487Q26.0055 86.193 27.2587 87.5379Q32.3154 86.1911 37.9871 84.1463L38.9938 83.7796L41.0255 83.017L42.0472 82.6224L42.5605 82.4214L43.5961 82.0104L44.6363 81.5903L45.6823 81.1606L48.3243 80.0433L49.3841 79.5825L50.4523 79.1109Q53.677 77.6764 56.9364 76.0961L58.0302 75.5622Q59.7863 74.6991 61.5436 73.7978L62.9999 73.0508L62.9999 77.4605L62.4526 77.7383Q55.9579 81.0355 49.5689 83.7789L47.8598 84.5035Q42.7547 86.6402 37.9211 88.3326Q34.0958 89.672 30.5423 90.6978Q31.4476 91.4785 32.3948 92.2047L32.3953 92.2052Q32.4119 92.2178 32.4284 92.2305L32.4293 92.2312L32.4303 92.2319Q33.7876 93.2704 35.2306 94.197Q37.108 95.4025 39.0924 96.394L39.0926 96.3941Q40.5513 97.1229 42.0678 97.7362Q43.835 98.4508 45.6529 98.997L45.6534 98.9972L45.6539 98.9973L45.6544 98.9974L45.6546 98.9975Q47.5852 99.5775 49.573 99.9675Q50.598 100.169 51.6306 100.318Q54.5856 100.744 57.6021 100.744Q60.678 100.744 63.6887 100.301L63.7189 100.296Q64.8436 100.13 65.9592 99.9018Q67.981 99.488 69.9416 98.8777L69.9418 98.8777Q71.8709 98.2771 73.7407 97.4863Q75.3095 96.8227 76.8133 96.0351L76.8136 96.035Q78.8585 94.964 80.7832 93.6637Q82.3041 92.6362 83.7233 91.4836Q85.392 90.1284 86.9202 88.6002Q88.4489 87.0715 89.8045 85.4022L89.8055 85.401Q90.9571 83.9828 91.9837 82.4632Q93.2845 80.5378 94.3557 78.4922L94.3561 78.4915L94.3564 78.4909Q95.1433 76.9882 95.8063 75.4207Q96.598 73.5488 97.199 71.6175L97.1991 71.6172L97.1992 71.617Q97.8085 69.6586 98.2218 67.6392Q98.4525 66.5116 98.6201 65.3747L98.6205 65.3717Q99.0641 62.3596 99.0641 59.2821L99.0641 59.2819Q99.0641 56.8604 98.7887 54.4752Q94.3829 58.1425 89.0459 61.8897Q82.7169 66.3336 75.5081 70.5869L73.9999 71.4767L73.9999 66.9212L74.4873 66.6302Q76.4041 65.486 78.2649 64.3224L79.2556 63.699L80.2339 63.0757L82.6377 61.5099L83.5752 60.8854L84.5052 60.2579L85.8801 59.315L86.7799 58.6876L88.5484 57.4294L89.4102 56.8036Q94.1493 53.3383 98.0175 49.9827Z" opacity="0.300000012" fill="rgb(151,151,151)" fill-opacity="0" fill-rule="evenodd" />
					<g mask="url(#mask_0)">
						<circle id="椭圆形" cx="50.914566" cy="91.6936798" r="4.45851088" opacity="0.200000003" fill="rgb(161,167,179)" />
						<circle id="椭圆形" cx="50.914566" cy="91.6936798" r="3.95851088" opacity="0.200000003" stroke="rgb(151,151,151)" stroke-opacity="0" stroke-width="1" />
						<circle id="椭圆形备份 13" cx="80.956459" cy="48.6668472" r="6.36930084" opacity="0.200000003" fill="rgb(161,167,179)" />
						<circle id="椭圆形备份 13" cx="80.956459" cy="48.6668472" r="5.86930084" opacity="0.200000003" stroke="rgb(151,151,151)" stroke-opacity="0" stroke-width="1" />
						<circle id="椭圆形备份 16" cx="42.978714" cy="51.2144318" r="4.60005045" opacity="0.200000003" fill="rgb(161,167,179)" />
						<circle id="椭圆形备份 16" cx="42.978714" cy="51.2144318" r="4.10005045" opacity="0.200000003" stroke="rgb(151,151,151)" stroke-opacity="0" stroke-width="1" />
						<circle id="椭圆形备份 14" cx="60.4331055" cy="21.0664692" r="16.2771015" opacity="0.200000003" fill="rgb(161,167,179)" />
						<circle id="椭圆形备份 14" cx="60.4331055" cy="21.0664692" r="15.7771015" opacity="0.200000003" stroke="rgb(151,151,151)" stroke-opacity="0" stroke-width="1" />
						<circle id="椭圆形备份 15" cx="23.278923" cy="76.6209641" r="10.9693518" opacity="0.200000003" fill="rgb(161,167,179)" />
						<circle id="椭圆形备份 15" cx="23.278923" cy="76.6209641" r="10.4693518" opacity="0.200000003" stroke="rgb(151,151,151)" stroke-opacity="0" stroke-width="1" />
						<circle id="椭圆形备份 19" cx="93.7105637" cy="78.2105637" r="10.9693518" opacity="0.200000003" fill="rgb(161,167,179)" />
						<circle id="椭圆形备份 19" cx="93.7105637" cy="78.2105637" r="10.4693518" opacity="0.200000003" stroke="rgb(151,151,151)" stroke-opacity="0" stroke-width="1" />
					</g>
				</g>
				<path id="形状结合" d="M62.0002 76.8466L62.0002 74.6876C60.8205 75.2926 59.643 75.8839 58.4691 76.4608L57.3729 76.9959C55.1829 78.0577 53.0073 79.0688 50.8564 80.0257L49.783 80.4996L48.714 80.9643C47.8251 81.3478 46.941 81.7216 46.0625 82.0855L45.011 82.5175L43.9652 82.9399L42.9253 83.3525L42.4077 83.5552L41.3772 83.9532C40.6923 84.2152 40.0119 84.4705 39.3363 84.7191L38.3265 85.087C33.4636 86.8402 28.8622 88.2346 24.6646 89.2196L23.7043 89.4392L22.9198 89.6098L22.1497 89.7692L21.2449 89.9459L20.6536 90.0549L20.0718 90.1568L18.9372 90.3398L18.1121 90.4589L17.5744 90.5297L17.0468 90.5937L16.5293 90.6509L15.7722 90.7241L15.2804 90.7645L14.7991 90.7982C14.4023 90.8236 14.0165 90.842 13.6419 90.8536L13.1978 90.8643C12.6128 90.8742 12.0566 90.8668 11.5303 90.8424L11.1411 90.8209C8.07272 90.6237 6.08501 89.8191 5.37757 88.4886C4.67014 87.1581 5.11462 85.0603 6.66697 82.4062L6.86678 82.0716C7.14088 81.6216 7.4457 81.1564 7.78104 80.6769L8.03827 80.3147C8.25739 80.0106 8.48841 79.7011 8.73128 79.3863L9.02841 79.0061L9.3369 78.621L9.65673 78.231L10.1577 77.6373L10.5058 77.2356L10.8652 76.8295L11.2358 76.4189L11.6176 76.004L12.0107 75.5849L12.415 75.1616L12.8304 74.7343L13.257 74.303L13.6948 73.8678L14.1436 73.4288L14.8377 72.7635L15.5567 72.0902C15.8162 71.85 16.0795 71.6091 16.3481 71.3675C16.1602 70.7426 15.9764 70.049 15.8097 69.2655L15.066 69.9312L14.3421 70.5926C14.2231 70.7024 14.105 70.8121 13.9877 70.9215L13.2939 71.5757C13.18 71.6844 13.0669 71.7928 12.9547 71.901L12.2917 72.5475L11.6495 73.1887L11.0284 73.8242C10.9266 73.9297 10.8258 74.0349 10.7258 74.1398L10.1369 74.7664L9.56962 75.3867C9.4769 75.4896 9.38511 75.5922 9.29423 75.6945L8.7601 76.305C8.49861 76.6086 8.24552 76.9095 8.00098 77.2078L7.52333 77.8007C7.44563 77.8989 7.3689 77.9968 7.29313 78.0944L6.85016 78.676C3.54356 83.1053 2.30403 86.8441 3.66316 89.4002C7.0113 95.6971 25.1281 92.9333 47.4697 83.5828L49.1745 82.86C53.337 81.0727 57.6343 79.063 62.0002 76.8466ZM112.957 31.2875C116.759 38.4374 100.229 54.8404 75.0002 69.7256L75.0002 67.4888C76.2866 66.7209 77.5524 65.9475 78.7953 65.1703L79.7884 64.5454L80.7715 63.919C81.5865 63.3965 82.3908 62.8726 83.1837 62.3478L84.1298 61.7177C84.4433 61.5075 84.755 61.2972 85.0648 61.0868L86.4459 60.1397L87.3521 59.5079C87.9522 59.0866 88.5444 58.6653 89.1283 58.2442L89.998 57.6128C94.1707 54.5616 97.8998 51.5266 101.064 48.5974L101.783 47.9241L102.477 47.2588L102.926 46.8199L103.578 46.1686L104.205 45.5261L104.61 45.1028L105.385 44.2688L105.755 43.8582L106.115 43.4521L106.463 43.0504L106.964 42.4566L107.284 42.0667L107.592 41.6815L107.889 41.3013C108.132 40.9866 108.363 40.6771 108.582 40.373L108.839 40.0108C109.175 39.5313 109.48 39.0661 109.754 38.6161L109.953 38.2814C111.506 35.6273 111.95 33.5295 111.243 32.199C110.535 30.8686 108.548 30.064 105.479 29.8668L105.09 29.8453C104.564 29.8209 104.008 29.8135 103.423 29.8234L102.979 29.834C102.604 29.8457 102.218 29.8641 101.821 29.8894L101.34 29.9232L100.848 29.9636L100.091 30.0367L99.5737 30.0939L99.046 30.1579L98.5084 30.2287L97.9607 30.3064L97.4033 30.391L96.5487 30.5308L95.9669 30.6328C95.7714 30.6679 95.5742 30.7043 95.3755 30.7417L94.4707 30.9184L93.5449 31.1111L92.9161 31.2485L91.9559 31.4681C91.5697 31.5587 91.18 31.6528 90.7871 31.7503C90.3375 31.1827 89.8649 30.6389 89.3638 30.1257L90.336 29.8793C90.4968 29.8394 90.657 29.8001 90.8166 29.7613L91.7665 29.5359C92.0807 29.4631 92.3922 29.3926 92.7012 29.3245L93.6201 29.1274L94.5231 28.9445C94.6722 28.9152 94.8207 28.8866 94.9684 28.8585L95.8467 28.6972L96.7081 28.5503C96.8503 28.5271 96.9917 28.5044 97.1324 28.4824L97.9678 28.3574C98.1056 28.3378 98.2426 28.3188 98.3788 28.3005L99.1875 28.1976C99.454 28.1657 99.7175 28.1364 99.9778 28.1095L100.75 28.0363C100.877 28.0254 101.003 28.015 101.128 28.0053L101.871 27.9546L102.595 27.919L103.299 27.8986C108.27 27.8069 111.683 28.891 112.957 31.2875Z" opacity="0.600000024" fill="rgb(161,167,179)" fill-rule="evenodd" />
				<path id="形状结合" d="M112.957 31.2875C113.323 31.9748 113.5 32.7477 113.5 33.5965C113.5 41.5771 97.8033 56.2713 75.0002 69.7256L75.0002 67.4888C76.2866 66.7209 77.5524 65.9475 78.7953 65.1703L79.7884 64.5454L80.7715 63.919C81.5865 63.3965 82.3908 62.8726 83.1837 62.3478L84.1298 61.7177C84.4433 61.5075 84.755 61.2972 85.0648 61.0868L86.4459 60.1397L87.3521 59.5079C87.9522 59.0866 88.5444 58.6653 89.1283 58.2442L89.998 57.6128C94.1707 54.5616 97.8998 51.5266 101.064 48.5974L101.783 47.9241L102.477 47.2588L102.926 46.8199L103.578 46.1686L104.205 45.5261L104.61 45.1028L105.385 44.2688L105.755 43.8582L106.115 43.4521L106.463 43.0504L106.964 42.4566L107.284 42.0667L107.592 41.6815L107.889 41.3013C108.132 40.9866 108.363 40.6771 108.582 40.373L108.839 40.0108C109.175 39.5313 109.48 39.0661 109.754 38.6161L109.953 38.2814C111.026 36.4472 111.57 34.8786 111.57 33.6454C111.57 33.0942 111.461 32.61 111.243 32.199C110.535 30.8686 108.548 30.064 105.479 29.8668L105.09 29.8453C104.564 29.8209 104.008 29.8135 103.423 29.8234L102.979 29.834C102.604 29.8457 102.218 29.8641 101.821 29.8894L101.34 29.9232L100.848 29.9636L100.091 30.0367L99.5737 30.0939L99.046 30.1579L98.5084 30.2287L97.9607 30.3064L97.4033 30.391L96.5487 30.5308L95.9669 30.6328C95.7714 30.6679 95.5742 30.7043 95.3755 30.7417L94.4707 30.9184L93.5449 31.1111L92.9161 31.2485L91.9559 31.4681C91.5697 31.5587 91.18 31.6528 90.7871 31.7503C90.3375 31.1827 89.8649 30.6389 89.3638 30.1257L90.336 29.8793C90.4968 29.8394 90.657 29.8001 90.8166 29.7613L91.7665 29.5359C92.0807 29.4631 92.3922 29.3926 92.7012 29.3245L93.6201 29.1274L94.5231 28.9445C94.6722 28.9152 94.8207 28.8866 94.9684 28.8585L95.8467 28.6972L96.7081 28.5503C96.8503 28.5271 96.9917 28.5044 97.1324 28.4824L97.9678 28.3574C98.1056 28.3378 98.2426 28.3188 98.3788 28.3005L99.1875 28.1976C99.454 28.1657 99.7175 28.1364 99.9778 28.1095L100.75 28.0363C100.877 28.0254 101.003 28.015 101.128 28.0053L101.871 27.9546L102.595 27.919L103.299 27.8986C108.27 27.8069 111.683 28.891 112.957 31.2875ZM62.0002 74.6876L62.0002 76.8466C57.6343 79.063 53.337 81.0727 49.1745 82.86L47.4697 83.5828C25.1281 92.9333 7.0113 95.6971 3.66316 89.4002C3.29768 88.7128 3.12012 87.94 3.12012 87.0912C3.12012 84.7834 4.43271 81.9142 6.85016 78.676L7.29313 78.0944C7.3689 77.9968 7.44563 77.8989 7.52333 77.8007L8.00098 77.2078C8.24552 76.9095 8.49861 76.6086 8.7601 76.305L9.29423 75.6945C9.38511 75.5922 9.4769 75.4896 9.56962 75.3867L10.1369 74.7664L10.7258 74.1398C10.8258 74.0349 10.9266 73.9297 11.0284 73.8242L11.6495 73.1887L12.2917 72.5475L12.9547 71.901C13.0669 71.7928 13.18 71.6844 13.2939 71.5757L13.9877 70.9215C14.105 70.8121 14.2231 70.7024 14.3421 70.5926L15.066 69.9312L15.8097 69.2655C15.9764 70.049 16.1602 70.7426 16.3481 71.3675C16.0795 71.6091 15.8162 71.85 15.5567 72.0902L14.8377 72.7635L14.1436 73.4288L13.6948 73.8678L13.257 74.303L12.8304 74.7343L12.415 75.1616L12.0107 75.5849L11.6176 76.004L11.2358 76.4189L10.8652 76.8295L10.5058 77.2356L10.1577 77.6373L9.65673 78.231L9.3369 78.621L9.02841 79.0061L8.73128 79.3863C8.48841 79.7011 8.25739 80.0106 8.03827 80.3147L7.78104 80.6769C7.4457 81.1564 7.14088 81.6216 6.86678 82.0716L6.66697 82.4062C5.59413 84.2405 5.05044 85.8091 5.05044 87.0423C5.05044 87.5934 5.15905 88.0776 5.37757 88.4886C6.08501 89.8191 8.07272 90.6237 11.1411 90.8209L11.5303 90.8424C12.0566 90.8668 12.6128 90.8742 13.1978 90.8643L13.6419 90.8536C14.0165 90.842 14.4023 90.8236 14.7991 90.7982L15.2804 90.7645L15.7722 90.7241L16.5293 90.6509L17.0468 90.5937L17.5744 90.5297L18.1121 90.4589L18.9372 90.3398L20.0718 90.1568L20.6536 90.0549L21.2449 89.9459L22.1497 89.7692L22.9198 89.6098L23.7043 89.4392L24.6646 89.2196C28.8622 88.2346 33.4636 86.8402 38.3265 85.087L39.3363 84.7191C40.0119 84.4705 40.6923 84.2152 41.3772 83.9532L42.4077 83.5552L42.9253 83.3525L43.9652 82.9399L45.011 82.5175L46.0625 82.0855C46.941 81.7216 47.8251 81.3478 48.714 80.9643L49.783 80.4996L50.8564 80.0257C53.0073 79.0688 55.1829 78.0577 57.3729 76.9959L58.4691 76.4608C59.643 75.8839 60.8205 75.2926 62.0002 74.6876Z" opacity="0.600000024" fill="rgb(151,151,151)" fill-opacity="0" fill-rule="evenodd" />
				<circle id="椭圆形备份 16" cx="112.400803" cy="53.620594" r="3.53850055" opacity="0.200000003" fill="rgb(161,167,179)" />
				<circle id="椭圆形备份 16" cx="112.400803" cy="53.620594" r="3.03850055" opacity="0.200000003" stroke="rgb(151,151,151)" stroke-opacity="0" stroke-width="1" />
				<circle id="椭圆形备份 17" cx="88.7088852" cy="24.2124252" r="1.91079032" opacity="0.200000003" fill="rgb(161,167,179)" />
				<circle id="椭圆形备份 17" cx="88.7088852" cy="24.2124252" r="1.41079032" opacity="0.200000003" stroke="rgb(151,151,151)" stroke-opacity="0" stroke-width="1" />
				<circle id="椭圆形备份 18" cx="7.49068594" cy="63.8822861" r="1.76925027" opacity="0.200000003" fill="rgb(161,167,179)" />
				<circle id="椭圆形备份 18" cx="7.49068594" cy="63.8822861" r="1.26925027" opacity="0.200000003" stroke="rgb(151,151,151)" stroke-opacity="0" stroke-width="1" />
				<path id="形状结合" d="M44.446 99.667C41.6496 100.228 39.9644 100.953 39.9644 101.745C39.9644 103.526 48.4959 104.97 59.0201 104.97C69.5444 104.97 78.0759 103.526 78.0759 101.745C78.0759 100.79 75.6214 99.9312 71.7213 99.3406C67.3041 100.898 62.552 101.744 57.6022 101.744C53.0101 101.744 48.5882 101.016 44.446 99.667Z" opacity="0.150000006" fill="rgb(161,167,179)" fill-rule="evenodd" />
				<path id="形状结合" d="M39.9644 101.745C39.9644 100.953 41.6496 100.228 44.446 99.667C48.5882 101.016 53.0101 101.744 57.6022 101.744C62.552 101.744 67.3041 100.898 71.7213 99.3406C75.6214 99.9312 78.0759 100.79 78.0759 101.745C78.0759 103.526 69.5444 104.97 59.0201 104.97C48.4959 104.97 39.9644 103.526 39.9644 101.745ZM44.3894 100.699Q42.5511 101.084 41.5703 101.53Q41.3233 101.642 41.1583 101.745Q41.4099 101.902 41.8334 102.072Q43.1805 102.611 45.7125 103.039Q48.3025 103.478 51.6742 103.719Q55.179 103.97 59.0201 103.97Q62.8613 103.97 66.3661 103.719Q69.7378 103.478 72.3277 103.039Q74.8598 102.611 76.2069 102.072Q76.63 101.902 76.8816 101.745Q76.5704 101.55 76.0138 101.344Q74.5199 100.79 71.8155 100.367Q70.3792 100.864 68.9151 101.258L68.9146 101.258L68.9123 101.258L68.9121 101.258Q66.9954 101.774 65.0312 102.112Q64.2189 102.252 63.4025 102.361Q60.5279 102.744 57.6022 102.744Q54.7732 102.744 51.9906 102.386L51.9905 102.385L51.9896 102.385Q51.3424 102.302 50.6977 102.199Q48.7855 101.894 46.9156 101.421L46.9155 101.421L46.9131 101.42L46.9129 101.42Q45.6414 101.099 44.3894 100.699Z" opacity="0.150000006" fill="rgb(151,151,151)" fill-opacity="0" fill-rule="evenodd" />
			</g>
			<path id="形状结合" d="M12.7136 8.46667C12.7136 9.21817 12.1044 9.82738 11.3529 9.82738C10.6014 9.82738 9.99218 9.21817 9.99218 8.46667L9.99218 1.36071C9.99218 0.609213 10.6014 0 11.3529 0C12.1044 0 12.7136 0.609213 12.7136 1.36071L12.7136 8.46667ZM18.3961 10.4158C19.122 10.6103 19.8681 10.1795 20.0626 9.45364L21.9018 2.58982C22.0963 1.86392 21.6655 1.11779 20.9396 0.923289C20.2137 0.728786 19.4676 1.15956 19.2731 1.88546L17.4339 8.74928C17.2394 9.47518 17.6702 10.2213 18.3961 10.4158ZM4.51456 8.74928C4.70906 9.47518 4.27828 10.2213 3.55239 10.4158C2.82649 10.6103 2.08036 10.1795 1.88586 9.45364L0.046703 2.58982C-0.1478 1.86392 0.282978 1.11779 1.00887 0.92329C1.73477 0.728787 2.4809 1.15956 2.6754 1.88546L4.51456 8.74928Z" opacity="0.200000003" fill="rgb(161,167,179)" fill-rule="evenodd" transform="matrix(0.62932,-0.777146,0.777146,0.62932,3.9314,32.0568)" />
			<path id="形状结合" d="M12.7136 8.46667C12.7136 9.21817 12.1044 9.82738 11.3529 9.82738C10.6014 9.82738 9.99218 9.21817 9.99218 8.46667L9.99218 1.36071C9.99218 0.609213 10.6014 0 11.3529 0C12.1044 0 12.7136 0.609213 12.7136 1.36071L12.7136 8.46667ZM20.0626 9.45364C19.8681 10.1795 19.122 10.6103 18.3961 10.4158C17.7881 10.2529 17.3872 9.70311 17.3872 9.10232C17.3872 8.98574 17.4023 8.86724 17.4339 8.74928L19.2731 1.88546C19.4676 1.15956 20.2137 0.728786 20.9396 0.923289C21.5475 1.08618 21.9485 1.63599 21.9485 2.23679C21.9485 2.35336 21.9334 2.47186 21.9018 2.58982L20.0626 9.45364ZM4.51456 8.74928C4.54617 8.86724 4.56126 8.98574 4.56126 9.10232C4.56126 9.70311 4.16032 10.2529 3.55239 10.4158C2.82649 10.6103 2.08036 10.1795 1.88586 9.45364L0.046703 2.58982C0.0150954 2.47186 0 2.35336 0 2.23679C0 1.63599 0.400939 1.08619 1.00887 0.92329C1.73477 0.728787 2.4809 1.15956 2.6754 1.88546L4.51456 8.74928ZM11.7136 8.46667L11.7136 1.36071Q11.7136 1.28601 11.6872 1.22224Q11.6608 1.15847 11.608 1.10565Q11.5551 1.05283 11.4914 1.02641Q11.4276 1 11.3529 1Q11.2782 1 11.2145 1.02638L11.2144 1.02641Q11.1507 1.05283 11.0978 1.10565Q11.045 1.15847 11.0186 1.22224Q10.9922 1.28601 10.9922 1.36071L10.9922 8.46667Q10.9922 8.54137 11.0186 8.60514L11.0186 8.60517Q11.045 8.66892 11.0978 8.72173Q11.1506 8.77452 11.2143 8.80093L11.2144 8.80097Q11.2782 8.82738 11.3529 8.82738Q11.4276 8.82738 11.4914 8.80097L11.4914 8.80096Q11.5551 8.77454 11.608 8.72173Q11.6607 8.66896 11.6871 8.60527L11.6872 8.60514Q11.7136 8.54137 11.7136 8.46667ZM18.6549 9.44989Q18.727 9.4692 18.7954 9.46023L18.7955 9.46021Q18.8639 9.4512 18.9286 9.41385Q18.9933 9.37649 19.0353 9.32173Q19.0774 9.26698 19.0967 9.19482L20.9358 2.331Q20.949 2.28177 20.949 2.23429Q20.949 2.21217 20.9462 2.19043Q20.9372 2.12199 20.8998 2.05728Q20.8625 1.99271 20.8079 1.95071L20.8077 1.95056Q20.7529 1.90855 20.6808 1.88921Q20.6086 1.86988 20.5402 1.87889Q20.4718 1.88789 20.4071 1.92525Q20.3424 1.9626 20.3003 2.01736L20.3003 2.01739Q20.2583 2.07213 20.239 2.14428L18.3998 9.0081Q18.3866 9.05733 18.3866 9.10482Q18.3866 9.12694 18.3895 9.14869L18.3895 9.14886Q18.3986 9.21721 18.4359 9.28182Q18.4732 9.34651 18.528 9.38853Q18.5827 9.43055 18.6549 9.44989ZM3.54863 9.0081L1.70948 2.14428Q1.69014 2.07212 1.64812 2.01736Q1.60611 1.9626 1.54141 1.92525Q1.47671 1.8879 1.40828 1.87889L1.40828 1.87889Q1.33985 1.86988 1.26769 1.88922Q1.19554 1.90855 1.14078 1.95056L1.14077 1.95057L1.14077 1.95057Q1.08602 1.99259 1.04866 2.05728Q1.01131 2.12198 1.0023 2.19041Q0.999439 2.21216 0.999439 2.23428Q0.999439 2.28177 1.01263 2.331L2.85179 9.19482Q2.87111 9.26694 2.9131 9.32169L2.91314 9.32174L2.91321 9.32183Q2.95521 9.37653 3.01985 9.41385Q3.08455 9.4512 3.15298 9.46021Q3.22142 9.46922 3.29357 9.44989Q3.36573 9.43055 3.42049 9.38853Q3.47524 9.34652 3.5126 9.28182Q3.54994 9.21713 3.55896 9.14872L3.55896 9.14869L3.55899 9.14844Q3.56182 9.12681 3.56182 9.10482Q3.56182 9.05733 3.54863 9.0081Z" opacity="0.200000003" fill="rgb(151,151,151)" fill-opacity="0" fill-rule="evenodd" transform="matrix(0.62932,-0.777146,0.777146,0.62932,3.9314,32.0568)" />
			<path id="路径" d="M67.302 58.4738C67.8088 58.5527 68.1671 58.9991 68.1477 59.4994L68.1364 59.6157L66.5859 69.5821L71.1205 67.734L69.4937 82.2569C69.4322 82.8058 68.9374 83.2009 68.3886 83.1394C67.8789 83.0823 67.5019 82.6516 67.4998 82.1509L67.5061 82.0343L68.7579 70.8561L64.0659 72.7691L66.1602 59.3082C66.239 58.8015 66.6855 58.4432 67.1858 58.4625L67.302 58.4738Z" opacity="0.600000024" fill="rgb(161,167,179)" fill-rule="evenodd" />
			<path id="路径" d="M66.7653 68.4292L68.1364 59.6157L68.1477 59.4994C68.1671 58.9991 67.8088 58.5527 67.302 58.4738L67.1858 58.4625C66.6855 58.4432 66.239 58.8015 66.1602 59.3082L64.2453 71.616L64.0659 72.7691L65.1465 72.3285L67.7035 71.286L68.7579 70.8561L68.6312 71.9877L67.5061 82.0343L67.4998 82.1509C67.5019 82.6516 67.8789 83.0823 68.3886 83.1394C68.9374 83.2009 69.4322 82.8058 69.4937 82.2569L70.9938 68.8655L71.1205 67.734L70.0661 68.1637L67.6665 69.1417L66.5859 69.5821L66.7653 68.4292ZM69.9394 69.2952L69.9389 69.2954L68.5072 82.0802L69.9394 69.2952ZM65.326 71.1754L67.1439 59.4904L67.1439 59.4904L65.3259 71.1755L65.326 71.1754Z" opacity="0.600000024" fill="rgb(151,151,151)" fill-opacity="0" fill-rule="evenodd" />
		</g>
	</g>
</svg>
