<svg viewBox="0 0 120 120" xmlns="http://www.w3.org/2000/svg" xmlns:xlink="http://www.w3.org/1999/xlink" width="120.000000" height="120.000000" fill="none" customFrame="#000000">
	<defs>
		<clipPath id="clipPath_2">
			<rect width="120.000000" height="120.000000" x="0.000000" y="0.000000" fill="rgb(255,255,255)" />
		</clipPath>
	</defs>
	<rect id="容器 2" width="120.000000" height="120.000000" x="0.000000" y="0.000000" />
	<g id="EmptyPage/05 SearchNoResult" customFrame="url(#clipPath_2)">
		<rect id="EmptyPage/05 SearchNoResult" width="120.000000" height="120.000000" x="0.000000" y="0.000000" />
		<path id="路径" d="M18.5778 97.0927L18.5789 99.0503C18.5789 100.248 19.5091 101.228 20.6862 101.307L20.8411 101.312L99.446 101.312C100.643 101.312 101.623 100.382 101.703 99.2052L101.708 99.0503L101.709 97.3547C103.836 98.2133 105.007 99.1521 105.007 100.136C105.007 101.321 103.305 102.442 100.279 103.435L99.6343 103.639L99.6343 103.639L98.9524 103.839L98.9524 103.839L98.2343 104.035L98.2343 104.035L97.4806 104.227L97.4806 104.227L96.6921 104.415C96.5578 104.446 96.4221 104.477 96.285 104.507L95.4457 104.689L95.4457 104.689L94.5734 104.866L94.5734 104.866L93.669 105.039L93.669 105.039L92.7331 105.207C92.416 105.262 92.0937 105.316 91.7665 105.37L90.77 105.528L90.77 105.528L89.7442 105.681L89.7442 105.681L88.6899 105.829L88.6899 105.829L87.608 105.972L87.608 105.972L86.499 106.11L86.499 106.11L85.3638 106.242L85.3638 106.242L84.2031 106.368L84.2031 106.368L83.0177 106.488L83.0177 106.488L81.8083 106.603L81.8083 106.603L80.5756 106.712L80.5756 106.712L79.3204 106.814L79.3204 106.814L78.0434 106.911L78.0434 106.911L76.7454 107L76.7454 107L75.4271 107.084L75.4271 107.084L74.0893 107.161L74.0893 107.161L72.7327 107.231L72.7327 107.231L71.358 107.294L71.358 107.294L69.966 107.35L69.966 107.35L68.5575 107.399L68.5575 107.399L67.1332 107.441L67.1332 107.441L64.9687 107.49L64.9687 107.49L63.5081 107.513L63.5081 107.513L62.0343 107.529L62.0343 107.529L60.548 107.537L60.548 107.537L59.0528 107.537L59.0528 107.537L57.5665 107.529L57.5665 107.529L56.0927 107.513L56.0927 107.513L54.6321 107.49L54.6321 107.49L53.1855 107.459L53.1855 107.459L51.7535 107.421L51.7535 107.421L50.337 107.376L50.337 107.376L48.9367 107.323L48.9367 107.323L47.5533 107.263L47.5533 107.263L46.1875 107.196L46.1875 107.196L44.8402 107.123L44.8402 107.123L43.5121 107.043L43.5121 107.043L42.2038 106.956L42.2038 106.956L40.9163 106.863L40.9163 106.863L39.6501 106.764L39.6501 106.764L38.406 106.658L38.406 106.658L37.1849 106.547L37.1849 106.547L35.9873 106.429L35.9873 106.429L34.8142 106.306L34.8142 106.306L33.6662 106.176C33.477 106.154 33.2888 106.132 33.1018 106.11L31.9928 105.972L31.9928 105.972L30.9109 105.829L30.9109 105.829L29.8566 105.681L29.8566 105.681L28.8309 105.528L28.8309 105.528L27.8343 105.37C27.6707 105.343 27.5083 105.316 27.3472 105.289L26.3959 105.123C26.2399 105.095 26.0852 105.067 25.9318 105.039L25.0274 104.866L25.0274 104.866L24.1551 104.689L24.1551 104.689L23.3158 104.507C23.1787 104.477 23.043 104.446 22.9087 104.415L22.1202 104.227L22.1202 104.227L21.3665 104.035L21.3665 104.035L20.6484 103.839L20.6484 103.839L19.9665 103.639L19.9665 103.639L19.3217 103.435C16.2957 102.442 14.5935 101.321 14.5935 100.136C14.5935 99.1314 15.8149 98.1738 18.0278 97.3006L18.5778 97.0927L18.5778 97.0927Z" opacity="0.150000006" fill="rgb(161,167,179)" fill-rule="evenodd" />
		<path id="路径" d="M20.6862 101.307C19.5091 101.228 18.5789 100.248 18.5789 99.0503L18.5784 98.1614L18.5778 97.0927L18.0278 97.3006C17.873 97.3617 17.7231 97.4232 17.578 97.4851C15.65 98.308 14.5935 99.2016 14.5935 100.136C14.5935 101.321 16.2957 102.442 19.3217 103.435L19.9665 103.639L20.6484 103.839L21.3665 104.035L22.1202 104.227L22.9087 104.415C23.043 104.446 23.1787 104.477 23.3158 104.507L24.1551 104.689L25.0274 104.866L25.9318 105.039C26.0852 105.067 26.2399 105.095 26.3959 105.123L27.3472 105.289C27.5083 105.316 27.6707 105.343 27.8343 105.37L28.8309 105.528L29.8566 105.681L30.9109 105.829L31.9928 105.972L33.1018 106.11C33.2888 106.132 33.477 106.154 33.6662 106.176L34.8142 106.306L35.9873 106.429L37.1849 106.547L38.406 106.658L39.6501 106.764L40.9163 106.863L42.2038 106.956L43.5121 107.043L44.8402 107.123L46.1875 107.196L47.5533 107.263L48.9367 107.323L50.337 107.376L51.7535 107.421L53.1855 107.459L54.6321 107.49L56.0927 107.513L57.5665 107.529L59.0528 107.537L60.548 107.537L62.0343 107.529L63.5081 107.513L64.9687 107.49L67.1332 107.441L68.5575 107.399L69.966 107.35L71.358 107.294L72.7327 107.231L74.0893 107.161L75.4271 107.084L76.7454 107L78.0434 106.911L79.3204 106.814L80.5756 106.712L81.8083 106.603L83.0177 106.488L84.2031 106.368L85.3638 106.242L86.499 106.11L87.608 105.972L88.6899 105.829L89.7442 105.681L90.77 105.528L91.7665 105.37C92.0937 105.316 92.416 105.262 92.7331 105.207L93.669 105.039L94.5734 104.866L95.4457 104.689L96.285 104.507C96.4221 104.477 96.5578 104.446 96.6921 104.415L97.4806 104.227L98.2343 104.035L98.9524 103.839L99.6343 103.639L100.279 103.435C103.305 102.442 105.007 101.321 105.007 100.136C105.007 99.3191 104.2 98.5334 102.708 97.7988C102.403 97.6486 102.07 97.5005 101.709 97.3547L101.708 98.4382L101.708 99.0503L101.703 99.2052C101.623 100.382 100.643 101.312 99.446 101.312L20.8411 101.312L20.6862 101.307ZM102.708 98.9263L102.708 99.0674L102.702 99.2556L102.701 99.2726Q102.679 99.5976 102.595 99.9058Q102.517 100.193 102.386 100.465Q102.259 100.728 102.091 100.961Q101.909 101.213 101.678 101.429Q101.444 101.648 101.178 101.815Q100.936 101.967 100.667 102.076Q100.399 102.184 100.12 102.243Q99.7901 102.312 99.446 102.312L20.8242 102.312L20.6356 102.306L20.6187 102.305Q20.2941 102.283 19.9862 102.199Q19.699 102.122 19.4263 101.99Q19.1632 101.863 18.9303 101.695Q18.6785 101.513 18.462 101.282Q18.2427 101.048 18.0757 100.782Q17.924 100.54 17.8154 100.271Q17.707 100.003 17.6483 99.7238Q17.579 99.3946 17.5789 99.0508L17.5789 99.0503L17.5786 98.5786Q16.6438 99.0114 16.1124 99.4443Q15.8058 99.6941 15.6729 99.9122Q15.5935 100.042 15.5935 100.136Q15.5935 100.254 15.7183 100.427Q15.9247 100.714 16.3893 101.033Q17.4659 101.773 19.6229 102.482L20.2479 102.679L20.9118 102.874L21.6135 103.066L22.3521 103.254L23.1301 103.44L23.5273 103.53L24.3542 103.709L25.2148 103.884L26.1111 104.055L26.5674 104.138L27.5112 104.302L27.9912 104.382L28.9786 104.539L29.9957 104.691L31.0417 104.838L32.1158 104.98L33.2191 105.117L33.7779 105.183L34.9188 105.311L36.0851 105.434L37.2759 105.551L38.4906 105.662L39.7283 105.767L40.9884 105.866L42.2699 105.958L43.5723 106.045L44.8946 106.125L46.2363 106.198L47.5964 106.264L48.9743 106.324L50.3691 106.376L51.7802 106.421L53.2068 106.46L54.6481 106.49L56.1034 106.513L57.5719 106.529L59.0528 106.537L60.5427 106.537L62.0236 106.529L63.4921 106.514L64.946 106.49L67.1038 106.442L68.5227 106.4L69.9257 106.351L71.3121 106.295L72.6811 106.232L74.032 106.162L75.364 106.086L76.6763 106.003L77.9682 105.913L79.239 105.818L80.4878 105.716L81.7139 105.608L82.9166 105.494L84.095 105.374L85.2484 105.248L86.376 105.117L87.4771 104.981L88.5508 104.839L89.5964 104.692L90.6131 104.541L91.6001 104.384L92.5565 104.222L93.4815 104.056L94.3744 103.886L95.2342 103.712L96.0636 103.532L96.4602 103.442L97.2336 103.258L97.9709 103.07L98.671 102.879L99.3331 102.685L99.9672 102.485Q102.135 101.773 103.212 101.033Q103.676 100.714 103.883 100.427Q104.007 100.254 104.007 100.136Q104.007 100.045 103.932 99.9194Q103.807 99.7089 103.516 99.467Q103.191 99.1969 102.708 98.9263Z" opacity="0.150000006" fill="rgb(151,151,151)" fill-opacity="0" fill-rule="evenodd" />
		<path id="形状" d="M81.2957 50.0654C81.9107 50.0654 82.4972 50.3158 82.9221 50.7553L83.0106 50.8524L101.435 72.2716C101.589 72.4512 101.683 72.674 101.704 72.9082L101.708 73.0371L101.708 99.0502C101.708 100.299 100.695 101.312 99.4461 101.312L20.8412 101.312C19.5919 101.312 18.579 100.299 18.579 99.0502L18.579 73.0371C18.5754 72.803 18.642 72.5665 18.7835 72.3636L18.8487 72.2787L36.9625 50.8665C37.3637 50.3923 37.9407 50.1055 38.5569 50.0693L38.6895 50.0654L81.2957 50.0654ZM42.0368 50.9546L77.9938 50.9546L78.1871 50.9628C78.763 51.0122 79.2995 51.2806 79.6845 51.7138L79.7675 51.8128L95.3172 71.459L95.4033 71.5843C95.5063 71.7581 95.5613 71.9571 95.5613 72.161C95.5613 72.7572 95.1 73.2457 94.5147 73.2889L94.4303 73.292L86.3669 73.292L86.3674 81.1372L86.3611 81.2836C86.2869 82.152 85.5585 82.8337 84.6709 82.8337L37.7341 82.8337L37.5877 82.8275C36.7193 82.7533 36.0376 82.0249 36.0376 81.1372L36.0371 73.292L25.857 73.292L25.7257 73.2843C25.5521 73.264 25.3854 73.2038 25.2388 73.1081L25.1622 73.0534L25.0675 72.971C24.6814 72.5956 24.6135 71.9946 24.9104 71.5417L24.9645 71.4662L40.2518 51.8271L40.3663 51.6914C40.7638 51.256 41.3166 50.9923 41.9065 50.9583L42.0368 50.9546Z" opacity="0.400000006" fill="rgb(161,167,179)" fill-rule="evenodd" />
		<path id="形状" d="M81.2957 50.0654C81.9107 50.0654 82.4972 50.3158 82.9221 50.7553L83.0106 50.8524L101.435 72.2716C101.589 72.4512 101.683 72.674 101.704 72.9082L101.708 73.0371L101.708 99.0502C101.708 100.299 100.695 101.312 99.4461 101.312L20.8412 101.312C19.5919 101.312 18.579 100.299 18.579 99.0502L18.579 73.0371C18.5789 73.0311 18.5789 73.0251 18.5789 73.0191C18.5789 72.791 18.6456 72.5613 18.7835 72.3636L18.8487 72.2787L36.9625 50.8665C37.3637 50.3923 37.9407 50.1055 38.5569 50.0693L38.6895 50.0654L81.2957 50.0654ZM77.9938 50.9546L42.0368 50.9546L41.9065 50.9583C41.3166 50.9923 40.7638 51.256 40.3663 51.6914L40.2518 51.8271L24.9645 71.4662L24.9104 71.5417C24.7863 71.7311 24.7259 71.9463 24.7259 72.1602C24.7259 72.4577 24.8428 72.7526 25.0675 72.971L25.1622 73.0534L25.2388 73.1081C25.3854 73.2038 25.5521 73.264 25.7257 73.2843L25.857 73.292L36.0371 73.292L36.0376 81.1372C36.0376 82.0249 36.7193 82.7533 37.5877 82.8275L37.7341 82.8337L84.6709 82.8337C85.5585 82.8337 86.2869 82.152 86.3611 81.2836L86.3674 81.1372L86.3669 73.292L94.4303 73.292L94.5147 73.2889C95.1 73.2457 95.5613 72.7572 95.5613 72.161C95.5613 71.9571 95.5063 71.7581 95.4033 71.5843L95.3172 71.459L79.7675 51.8128L79.6845 51.7138C79.2995 51.2806 78.763 51.0122 78.1871 50.9628L77.9938 50.9546ZM39.5861 51.0654L38.7041 51.0654L38.6029 51.0684Q38.4817 51.0767 38.3664 51.1072Q38.2427 51.14 38.1257 51.1983Q38.0099 51.2562 37.9102 51.3345L37.9101 51.3345Q37.8099 51.4131 37.726 51.5124L19.6272 72.9068L19.5979 72.9449Q19.579 72.9789 19.579 73.0328L19.579 73.0371L19.579 99.0502Q19.579 99.2035 19.614 99.3483L19.614 99.3484L19.6141 99.3486Q19.6379 99.4468 19.6778 99.5411Q19.7203 99.6416 19.7785 99.7321L19.7797 99.734Q19.8522 99.8461 19.9487 99.9426Q20.0458 100.04 20.1588 100.112L20.1589 100.113L20.1589 100.113Q20.2495 100.171 20.3502 100.213Q20.4447 100.253 20.5431 100.277L20.5433 100.277Q20.688 100.312 20.8412 100.312L99.4461 100.312Q99.5979 100.312 99.7415 100.278L99.7445 100.277Q99.8427 100.253 99.937 100.213Q100.038 100.171 100.128 100.113L100.128 100.112L100.129 100.112Q100.241 100.04 100.338 99.9426Q100.436 99.8453 100.509 99.7322L100.509 99.7318Q100.567 99.6415 100.609 99.5411Q100.649 99.447 100.673 99.349L100.673 99.3487Q100.708 99.2037 100.708 99.0502L100.708 73.0546L100.706 72.9836Q100.703 72.9703 100.698 72.9582Q100.69 72.9397 100.676 72.9238L82.262 51.5155L82.1943 51.4413Q82.1099 51.3556 82.0126 51.2885L82.0126 51.2885L82.0125 51.2884Q81.9082 51.2165 81.7892 51.1659Q81.6712 51.1158 81.5481 51.0907L81.548 51.0906L81.5477 51.0906Q81.4242 51.0654 81.2957 51.0654L80.4459 51.0654L80.5428 51.181L96.1222 70.8648L96.2464 71.0455L96.2635 71.0744Q96.4124 71.3256 96.4868 71.5972L96.487 71.5975Q96.5613 71.869 96.5613 72.161Q96.5613 72.3808 96.5179 72.5917L96.5179 72.5919Q96.4797 72.7773 96.4079 72.9557Q96.338 73.1296 96.2405 73.2862L96.2368 73.2923Q96.1293 73.4638 95.9887 73.6145Q95.8497 73.7634 95.6882 73.8816L95.688 73.8818Q95.5356 73.9932 95.3632 74.0772Q95.1843 74.1644 94.9958 74.2162L94.9953 74.2163Q94.7972 74.2707 94.5883 74.2861L94.5699 74.2875L94.4487 74.292L87.3669 74.292L87.3674 81.1585L87.3593 81.3474L87.3575 81.3688Q87.3352 81.6299 87.2646 81.8774L87.2646 81.8775Q87.1972 82.1139 87.0858 82.3378Q86.9789 82.5524 86.8384 82.7421L86.8383 82.7422Q86.688 82.945 86.4992 83.1192Q86.3093 83.2945 86.0937 83.4285L86.09 83.4308L86.0898 83.4309Q85.8905 83.5543 85.6694 83.6425Q85.4483 83.7307 85.2187 83.7782L85.2184 83.7783Q84.9504 83.8337 84.6709 83.8337L37.7129 83.8337L37.5238 83.8257L37.5026 83.8239Q37.2428 83.8017 36.9966 83.7318L36.9937 83.7309Q36.7574 83.6635 36.5335 83.5521Q36.3189 83.4453 36.1293 83.3048L36.1291 83.3047Q35.9263 83.1544 35.7521 82.9655Q35.5758 82.7745 35.4412 82.5575L35.4403 82.5561Q35.317 82.3569 35.2288 82.1358Q35.1407 81.9148 35.0931 81.6853L35.0931 81.6853Q35.0376 81.417 35.0376 81.1372L35.0372 74.292L25.8279 74.292L25.6386 74.2809L25.6096 74.2776Q25.3607 74.2485 25.1313 74.1654L25.1313 74.1654L25.1312 74.1654Q24.9019 74.0824 24.6922 73.9455L24.6748 73.9341L24.5421 73.8394L24.3902 73.7072L24.3704 73.688Q24.2337 73.555 24.1243 73.4025L24.1243 73.4024L24.1235 73.4013Q24.0176 73.2534 23.9375 73.0872Q23.861 72.9285 23.812 72.7617Q23.7597 72.5832 23.7389 72.3955Q23.7257 72.2766 23.7257 72.1585Q23.7257 72.0894 23.7302 72.0205L23.7303 72.0203L23.7304 72.0189Q23.7418 71.8466 23.7815 71.6761Q23.8231 71.498 23.8933 71.3319L23.8933 71.3318L23.8933 71.3317Q23.9677 71.1558 24.0742 70.9933L24.0854 70.9764L24.163 70.8679L39.4748 51.1974L39.5861 51.0654Z" opacity="0.400000006" fill="rgb(151,151,151)" fill-opacity="0" fill-rule="evenodd" />
		<path id="路径" d="M77.9938 50.9547C78.6419 50.9547 79.2566 51.2325 79.6844 51.7139L79.7675 51.8128L95.3171 71.4591C95.4752 71.6589 95.5613 71.9062 95.5613 72.161C95.5613 72.7573 95.0999 73.2458 94.5147 73.2889L94.4303 73.292L86.3668 73.292L86.3673 81.1373C86.3673 82.0742 85.6077 82.8338 84.6708 82.8338L37.734 82.8338C36.7971 82.8338 36.0375 82.0742 36.0375 81.1373L36.037 73.292L25.8569 73.292C25.6367 73.292 25.422 73.2278 25.2387 73.1081L25.1622 73.0535C24.6939 72.689 24.5906 72.0294 24.9104 71.5418L24.9644 71.4663L40.2517 51.8272C40.6535 51.311 41.2576 50.9958 41.9064 50.9584L42.0367 50.9547L77.9938 50.9547Z" opacity="0.600000024" fill="rgb(161,167,179)" fill-rule="evenodd" />
		<path id="路径" d="M87.3668 73.292L94.4303 73.292L94.5147 73.2889C95.0999 73.2458 95.5613 72.7573 95.5613 72.161C95.5613 71.9062 95.4752 71.6589 95.3171 71.4591L79.7675 51.8128L79.6844 51.7139C79.2566 51.2325 78.6419 50.9547 77.9938 50.9547L42.0367 50.9547L41.9064 50.9584C41.2576 50.9958 40.6535 51.311 40.2517 51.8272L24.9644 71.4663L24.9104 71.5418C24.5906 72.0294 24.6939 72.689 25.1622 73.0535L25.2387 73.1081C25.422 73.2278 25.6367 73.292 25.8569 73.292L36.037 73.292L36.0375 81.1373C36.0375 82.0742 36.7971 82.8338 37.734 82.8338L84.6708 82.8338C85.6077 82.8338 86.3673 82.0742 86.3673 81.1373L86.3669 74.292L86.3668 73.292L87.3668 73.292ZM25.7945 72.2763Q25.8066 72.2828 25.8194 72.2867Q25.8373 72.292 25.8569 72.292L37.037 72.292L37.0375 81.1373Q37.0375 81.2815 37.0885 81.4047Q37.1395 81.5278 37.2415 81.6298Q37.3435 81.7318 37.4666 81.7828Q37.5898 81.8338 37.734 81.8338L84.6708 81.8338Q84.8151 81.8338 84.9382 81.7828Q85.0613 81.7318 85.1633 81.6298Q85.2654 81.5277 85.3164 81.4045Q85.3673 81.2815 85.3673 81.1373L85.3668 72.292L94.4119 72.292L94.4506 72.2906Q94.4674 72.2882 94.4824 72.2817Q94.5066 72.2712 94.5262 72.2502Q94.5434 72.2318 94.5522 72.21Q94.5613 72.1873 94.5613 72.161Q94.5613 72.1382 94.5542 72.1179Q94.5471 72.0976 94.533 72.0797L78.9922 52.4446L78.9288 52.369Q78.8435 52.2748 78.7432 52.2009Q78.6359 52.1217 78.5115 52.0657Q78.3882 52.0103 78.2591 51.9825Q78.1294 51.9547 77.9938 51.9547L42.0511 51.9547L41.9516 51.9575Q41.8236 51.9661 41.7023 51.9994Q41.5726 52.035 41.4507 52.0989Q41.33 52.1622 41.2277 52.2477Q41.125 52.3334 41.0408 52.4415L25.7659 72.0646L25.7412 72.0992Q25.7334 72.1133 25.7296 72.1283Q25.723 72.1539 25.7276 72.1824Q25.7317 72.2071 25.7435 72.2273Q25.7531 72.2438 25.768 72.2573L25.7945 72.2763Z" opacity="0.600000024" fill="rgb(151,151,151)" fill-opacity="0" fill-rule="evenodd" />
		<path id="路径 24" d="M4.18507 2.38122C3.49403 1.77684 2.58557 1.19398 1.45868 0.633963C1.32432 0.567195 1.2517 0.457588 1.2517 0.345927C1.2517 0.279737 1.27722 0.212825 1.33052 0.153687C1.47374 -0.00521529 1.76332 -0.0478203 1.97732 0.0585262C3.17232 0.652386 4.14552 1.27679 4.89591 1.93308C4.97035 1.99818 5.00675 2.07778 5.00675 2.15698C5.00675 2.2551 4.95087 2.35259 4.84225 2.42107C4.64596 2.54482 4.35172 2.52698 4.18507 2.38122ZM5.43183 6.30508C5.43183 6.01721 5.4037 5.73412 5.3476 5.45565C5.34289 5.43228 5.34062 5.40901 5.34062 5.38607C5.34062 5.20653 5.47972 5.04689 5.67873 5.01302C5.90316 4.97483 6.11879 5.11108 6.16035 5.31735C6.22578 5.64212 6.25842 5.9714 6.25842 6.30499C6.25842 7.02136 6.1079 7.75763 5.80837 8.51194C5.73012 8.709 5.49286 8.81045 5.27845 8.73853C5.11079 8.6823 5.00674 8.53672 5.00674 8.3817C5.00674 8.33846 5.01483 8.29449 5.0319 8.25151C5.29902 7.5788 5.43183 6.93062 5.43183 6.30508ZM2.15581 12.7713L2.82756 11.5047C2.93561 11.3017 3.22155 11.2098 3.46622 11.2995C3.64727 11.3658 3.75499 11.5129 3.75499 11.6672C3.75499 11.7214 3.74169 11.7765 3.71359 11.8292L3.15439 12.8822L2.66138 13.8261L2.36644 14.405L2.18421 14.7706C2.08284 14.9759 1.80001 15.0742 1.5525 14.9901C1.36506 14.9264 1.25163 14.7764 1.25163 14.6182C1.25163 14.5675 1.26328 14.5159 1.28788 14.4661L1.47229 14.0962L1.77031 13.5112L2.15581 12.7713ZM0 20.586C0 19.7812 0.166561 18.8588 0.484808 17.7967C0.545013 17.5958 0.761997 17.4802 0.969456 17.5385C1.14051 17.5866 1.25168 17.7379 1.25168 17.9021C1.25168 17.9371 1.24665 17.9726 1.23608 18.0079C0.936487 19.0077 0.782294 19.8632 0.782294 20.5867C0.782294 20.686 0.785196 20.7827 0.791021 20.8771C0.791497 20.8848 0.791731 20.8924 0.791731 20.9C0.791731 21.0989 0.631621 21.2658 0.423939 21.2778C0.208306 21.2903 0.0230451 21.1311 0.0101466 20.9223C0.00336793 20.8125 0 20.7005 0 20.586ZM4.51988 25.0243C3.2618 24.7348 2.2175 24.1814 1.39379 23.3613C1.2999 23.2678 1.25171 23.1356 1.25171 23.0025C1.25171 22.8935 1.28402 22.784 1.35001 22.6949C1.49659 22.4968 1.75385 22.4741 1.92462 22.6441C2.63635 23.3527 3.55204 23.838 4.67849 24.0972C4.87247 24.1418 5.00675 24.3393 5.00675 24.5602C5.00675 24.5907 5.0042 24.6217 4.99888 24.6527C4.95509 24.9087 4.74063 25.0751 4.51988 25.0243ZM12.2148 24.575C11.117 24.815 10.1005 24.9677 9.16498 25.0325C8.95639 25.047 8.77622 24.8797 8.76256 24.6589C8.76201 24.65 8.76174 24.6411 8.76174 24.6323C8.76174 24.4229 8.91534 24.2467 9.11551 24.2328C10.0145 24.1705 10.9967 24.023 12.0617 23.7901C12.2664 23.7453 12.4666 23.8847 12.5089 24.1015C12.5142 24.1288 12.5168 24.1561 12.5168 24.1829C12.5168 24.369 12.3937 24.5358 12.2148 24.575ZM18.5167 23.6069C17.4718 24.1416 16.4739 24.6094 15.5231 25.0104C15.316 25.0977 15.0981 24.9304 15.0365 24.6368C15.0254 24.584 15.0202 24.5307 15.0202 24.4784C15.0202 24.2393 15.1301 24.0185 15.3 23.9469C16.2361 23.5522 17.2197 23.091 18.2509 22.5633C18.4542 22.4592 18.6785 22.6085 18.7519 22.8967C18.7677 22.9589 18.7752 23.0225 18.7752 23.085C18.7752 23.3122 18.6761 23.5253 18.5167 23.6069ZM24.7145 20.6444C23.7519 20.7802 22.7772 20.9858 21.7901 21.2612C21.5889 21.3173 21.3694 21.2312 21.2998 21.0688C21.2854 21.0351 21.2786 21.0008 21.2786 20.9671C21.2786 20.8381 21.3787 20.7175 21.5382 20.673C22.5635 20.3869 23.578 20.173 24.5817 20.0314C24.7914 20.0018 24.9911 20.115 25.0278 20.2843C25.0317 20.3024 25.0336 20.3205 25.0336 20.3383C25.0336 20.4866 24.9017 20.618 24.7145 20.6444ZM30.8338 21.2684C29.8716 21.0292 28.8967 20.9011 27.9087 20.8842C27.7022 20.8807 27.537 20.6894 27.537 20.4556L27.537 20.449C27.5402 20.2122 27.7117 20.0232 27.9201 20.0268C28.9585 20.0446 29.9837 20.1792 30.9952 20.4307C31.1716 20.4746 31.292 20.652 31.292 20.8491C31.292 20.8795 31.2892 20.9103 31.2832 20.9412C31.2386 21.1725 31.0374 21.319 30.8338 21.2684ZM36.9119 23.7131C35.9682 23.0796 35.013 22.5455 34.0464 22.1108C33.8894 22.0402 33.7955 21.8802 33.7955 21.7121C33.7955 21.655 33.8063 21.5969 33.8293 21.541C33.9197 21.321 34.1636 21.2193 34.374 21.3139C35.3831 21.7678 36.3784 22.3243 37.3598 22.9832C37.4832 23.066 37.5505 23.2058 37.5505 23.3486C37.5505 23.4288 37.5293 23.5099 37.4848 23.5824C37.3611 23.784 37.1046 23.8425 36.9119 23.7131ZM42.9792 28.6331C42.0708 27.6405 41.1523 26.7346 40.2237 25.9151C40.1115 25.8162 40.0539 25.6753 40.0539 25.5335C40.0539 25.4191 40.0914 25.304 40.1682 25.21C40.3402 24.9993 40.6438 24.9735 40.8464 25.1523C41.8016 25.9952 42.7448 26.9255 43.6763 27.9433C43.7649 28.0402 43.8089 28.1642 43.8089 28.2881C43.8089 28.4203 43.7588 28.5523 43.6594 28.6506C43.4669 28.8411 43.1623 28.8332 42.9792 28.6331ZM46.7478 33.6663C45.7849 32.7778 44.8496 31.8464 43.9417 30.8721C43.8529 30.7768 43.8089 30.6551 43.8089 30.5337C43.8089 30.4025 43.8602 30.2717 43.9619 30.1746C44.1578 29.9876 44.4664 29.9968 44.6512 30.195C45.5423 31.1513 46.4601 32.0653 47.4049 32.9371C47.5103 33.0345 47.5639 33.1679 47.5639 33.3019C47.5639 33.4206 47.5219 33.5396 47.4366 33.6342C47.2552 33.8356 46.9468 33.85 46.7478 33.6663ZM51.8871 37.4886C50.8942 36.9333 49.9272 36.3438 48.9861 35.7203C48.8742 35.6461 48.8156 35.5351 48.8156 35.4229C48.8156 35.3423 48.8459 35.261 48.9085 35.1923C49.058 35.0283 49.3353 34.9986 49.5277 35.1262C50.4503 35.7374 51.3982 36.3152 52.3713 36.8595C52.5005 36.9318 52.5706 37.0519 52.5706 37.1744C52.5706 37.2452 52.5472 37.3168 52.4982 37.3805C52.3645 37.5542 52.0909 37.6026 51.8871 37.4886ZM58.2516 40.0141C57.2398 39.5152 56.2517 38.9758 55.2872 38.396C55.1511 38.3142 55.074 38.1598 55.074 38.0004C55.074 37.9274 55.0902 37.8533 55.1243 37.7847C55.2329 37.5665 55.4818 37.4863 55.6804 37.6057C56.6259 38.1741 57.5947 38.7029 58.5869 39.1922C58.7389 39.2672 58.8291 39.4314 58.8291 39.6034C58.8291 39.6651 58.8175 39.7277 58.7931 39.7875C58.7005 40.0145 58.458 40.116 58.2516 40.0141ZM64.5916 42.5465C63.57 42.3393 62.5697 42.1082 61.5905 41.8531C61.4314 41.8117 61.3324 41.7033 61.3324 41.5877C61.3324 41.5559 61.3398 41.5236 61.3556 41.492C61.4286 41.3454 61.6522 41.2694 61.855 41.3222C62.8164 41.5726 63.7989 41.7996 64.8025 42.0032C64.9747 42.0381 65.0874 42.1514 65.0874 42.2747C65.0874 42.2999 65.0827 42.3256 65.0728 42.3511C65.0146 42.5011 64.7991 42.5886 64.5916 42.5465ZM70.9116 43.805C69.8868 43.6616 68.8807 43.4897 67.8933 43.2893C67.714 43.2529 67.5907 43.099 67.5907 42.9275C67.5907 42.9025 67.5934 42.8771 67.5988 42.8516C67.6417 42.6516 67.843 42.5233 68.0485 42.565C69.0201 42.7621 70.0106 42.9314 71.0197 43.0726C71.2092 43.0991 71.3458 43.2573 71.3458 43.4383C71.3458 43.4558 71.3445 43.4736 71.3419 43.4914C71.312 43.6936 71.1194 43.834 70.9116 43.805Z" opacity="0.300000012" fill="rgb(161,167,179)" fill-rule="evenodd" transform="matrix(-0.996195,-0.0871557,-0.0871557,0.996195,100.119,8.21814)" />
		<path id="路径 24" d="M4.18507 2.38122C3.49403 1.77684 2.58557 1.19398 1.45868 0.633963C1.32432 0.567195 1.2517 0.457588 1.2517 0.345927C1.2517 0.279737 1.27722 0.212825 1.33052 0.153687C1.47374 -0.00521529 1.76332 -0.0478203 1.97732 0.0585262C3.17232 0.652386 4.14552 1.27679 4.89591 1.93308C4.97035 1.99818 5.00675 2.07778 5.00675 2.15698C5.00675 2.2551 4.95087 2.35259 4.84225 2.42107C4.64596 2.54482 4.35172 2.52698 4.18507 2.38122ZM5.43183 6.30508C5.43183 6.01721 5.4037 5.73412 5.3476 5.45565C5.34289 5.43228 5.34062 5.40901 5.34062 5.38607C5.34062 5.20653 5.47972 5.04689 5.67873 5.01302C5.90316 4.97483 6.11879 5.11108 6.16035 5.31735C6.22578 5.64212 6.25842 5.9714 6.25842 6.30499C6.25842 7.02136 6.1079 7.75763 5.80837 8.51194C5.73012 8.709 5.49286 8.81045 5.27845 8.73853C5.11079 8.6823 5.00674 8.53672 5.00674 8.3817C5.00674 8.33846 5.01483 8.29449 5.0319 8.25151C5.29902 7.5788 5.43183 6.93062 5.43183 6.30508ZM2.15581 12.7713L2.82756 11.5047C2.93561 11.3017 3.22155 11.2098 3.46622 11.2995C3.64727 11.3658 3.75499 11.5129 3.75499 11.6672C3.75499 11.7214 3.74169 11.7765 3.71359 11.8292L3.15439 12.8822L2.66138 13.8261L2.36644 14.405L2.18421 14.7706C2.08284 14.9759 1.80001 15.0742 1.5525 14.9901C1.36506 14.9264 1.25163 14.7764 1.25163 14.6182C1.25163 14.5675 1.26328 14.5159 1.28788 14.4661L1.47229 14.0962L1.77031 13.5112L2.15581 12.7713ZM0 20.586C0 19.7812 0.166561 18.8588 0.484808 17.7967C0.545013 17.5958 0.761997 17.4802 0.969456 17.5385C1.14051 17.5866 1.25168 17.7379 1.25168 17.9021C1.25168 17.9371 1.24665 17.9726 1.23608 18.0079C0.936487 19.0077 0.782294 19.8632 0.782294 20.5867C0.782294 20.686 0.785196 20.7827 0.791021 20.8771C0.791497 20.8848 0.791731 20.8924 0.791731 20.9C0.791731 21.0989 0.631621 21.2658 0.423939 21.2778C0.208306 21.2903 0.0230451 21.1311 0.0101466 20.9223C0.00336793 20.8125 0 20.7005 0 20.586ZM24.7145 20.6444C23.7519 20.7802 22.7772 20.9858 21.7901 21.2612C21.5889 21.3173 21.3694 21.2312 21.2998 21.0688C21.2854 21.0351 21.2786 21.0008 21.2786 20.9671C21.2786 20.8381 21.3787 20.7175 21.5382 20.673C22.5635 20.3869 23.578 20.173 24.5817 20.0314C24.7914 20.0018 24.9911 20.115 25.0278 20.2843C25.0317 20.3024 25.0336 20.3205 25.0336 20.3383C25.0336 20.4866 24.9017 20.618 24.7145 20.6444ZM30.8338 21.2684C29.8716 21.0292 28.8967 20.9011 27.9087 20.8842C27.7022 20.8807 27.537 20.6894 27.537 20.4556L27.537 20.449C27.5402 20.2122 27.7117 20.0232 27.9201 20.0268C28.9585 20.0446 29.9837 20.1792 30.9952 20.4307C31.1716 20.4746 31.292 20.652 31.292 20.8491C31.292 20.8795 31.2892 20.9103 31.2832 20.9412C31.2386 21.1725 31.0374 21.319 30.8338 21.2684ZM36.9119 23.7131C35.9682 23.0796 35.013 22.5455 34.0464 22.1108C33.8894 22.0402 33.7955 21.8802 33.7955 21.7121C33.7955 21.655 33.8063 21.5969 33.8293 21.541C33.9197 21.321 34.1636 21.2193 34.374 21.3139C35.3831 21.7678 36.3784 22.3243 37.3598 22.9832C37.4832 23.066 37.5505 23.2058 37.5505 23.3486C37.5505 23.4288 37.5293 23.5099 37.4848 23.5824C37.3611 23.784 37.1046 23.8425 36.9119 23.7131ZM4.51988 25.0243C3.2618 24.7348 2.2175 24.1814 1.39379 23.3613C1.2999 23.2678 1.25171 23.1356 1.25171 23.0025C1.25171 22.8935 1.28402 22.784 1.35001 22.6949C1.49659 22.4968 1.75385 22.4741 1.92462 22.6441C2.63635 23.3527 3.55204 23.838 4.67849 24.0972C4.87247 24.1418 5.00675 24.3393 5.00675 24.5602C5.00675 24.5907 5.0042 24.6217 4.99888 24.6527C4.95509 24.9087 4.74063 25.0751 4.51988 25.0243ZM18.5167 23.6069C17.4718 24.1416 16.4739 24.6094 15.5231 25.0104C15.316 25.0977 15.0981 24.9304 15.0365 24.6368C15.0254 24.584 15.0202 24.5307 15.0202 24.4784C15.0202 24.2393 15.1301 24.0185 15.3 23.9469C16.2361 23.5522 17.2197 23.091 18.2509 22.5633C18.4542 22.4592 18.6785 22.6085 18.7519 22.8967C18.7677 22.9589 18.7752 23.0225 18.7752 23.085C18.7752 23.3122 18.6761 23.5253 18.5167 23.6069ZM12.2148 24.575C11.117 24.815 10.1005 24.9677 9.16498 25.0325C8.95639 25.047 8.77622 24.8797 8.76256 24.6589C8.76201 24.65 8.76174 24.6411 8.76174 24.6323C8.76174 24.4229 8.91534 24.2467 9.11551 24.2328C10.0145 24.1705 10.9967 24.023 12.0617 23.7901C12.2664 23.7453 12.4666 23.8847 12.5089 24.1015C12.5142 24.1288 12.5168 24.1561 12.5168 24.1829C12.5168 24.369 12.3937 24.5358 12.2148 24.575ZM42.9792 28.6331C42.0708 27.6405 41.1523 26.7346 40.2237 25.9151C40.1115 25.8162 40.0539 25.6753 40.0539 25.5335C40.0539 25.4191 40.0914 25.304 40.1682 25.21C40.3402 24.9993 40.6438 24.9735 40.8464 25.1523C41.8016 25.9952 42.7448 26.9255 43.6763 27.9433C43.7649 28.0402 43.8089 28.1642 43.8089 28.2881C43.8089 28.4203 43.7588 28.5523 43.6594 28.6506C43.4669 28.8411 43.1623 28.8332 42.9792 28.6331ZM46.7478 33.6663C45.7849 32.7778 44.8496 31.8464 43.9417 30.8721C43.8529 30.7768 43.8089 30.6551 43.8089 30.5337C43.8089 30.4025 43.8602 30.2717 43.9619 30.1746C44.1578 29.9876 44.4664 29.9968 44.6512 30.195C45.5423 31.1513 46.4601 32.0653 47.4049 32.9371C47.5103 33.0345 47.5639 33.1679 47.5639 33.3019C47.5639 33.4206 47.5219 33.5396 47.4366 33.6342C47.2552 33.8356 46.9468 33.85 46.7478 33.6663ZM51.8871 37.4886C50.8942 36.9333 49.9272 36.3438 48.9861 35.7203C48.8742 35.6461 48.8156 35.5351 48.8156 35.4229C48.8156 35.3423 48.8459 35.261 48.9085 35.1923C49.058 35.0283 49.3353 34.9986 49.5277 35.1262C50.4503 35.7374 51.3982 36.3152 52.3713 36.8595C52.5005 36.9318 52.5706 37.0519 52.5706 37.1744C52.5706 37.2452 52.5472 37.3168 52.4982 37.3805C52.3645 37.5542 52.0909 37.6026 51.8871 37.4886ZM58.2516 40.0141C57.2398 39.5152 56.2517 38.9758 55.2872 38.396C55.1511 38.3142 55.074 38.1598 55.074 38.0004C55.074 37.9274 55.0902 37.8533 55.1243 37.7847C55.2329 37.5665 55.4818 37.4863 55.6804 37.6057C56.6259 38.1741 57.5947 38.7029 58.5869 39.1922C58.7389 39.2672 58.8291 39.4314 58.8291 39.6034C58.8291 39.6651 58.8175 39.7277 58.7931 39.7875C58.7005 40.0145 58.458 40.116 58.2516 40.0141ZM64.5916 42.5465C63.57 42.3393 62.5697 42.1082 61.5905 41.8531C61.4314 41.8117 61.3324 41.7033 61.3324 41.5877C61.3324 41.5559 61.3398 41.5236 61.3556 41.492C61.4286 41.3454 61.6522 41.2694 61.855 41.3222C62.8164 41.5726 63.7989 41.7996 64.8025 42.0032C64.9747 42.0381 65.0874 42.1514 65.0874 42.2747C65.0874 42.2999 65.0827 42.3256 65.0728 42.3511C65.0146 42.5011 64.7991 42.5886 64.5916 42.5465ZM70.9116 43.805C69.8868 43.6616 68.8807 43.4897 67.8933 43.2893C67.714 43.2529 67.5907 43.099 67.5907 42.9275C67.5907 42.9025 67.5934 42.8771 67.5988 42.8516C67.6417 42.6516 67.843 42.5233 68.0485 42.565C69.0201 42.7621 70.0106 42.9314 71.0197 43.0726C71.2092 43.0991 71.3458 43.2573 71.3458 43.4383C71.3458 43.4558 71.3445 43.4736 71.3419 43.4914C71.312 43.6936 71.1194 43.834 70.9116 43.805Z" opacity="0.300000012" fill="rgb(151,151,151)" fill-opacity="0" fill-rule="evenodd" transform="matrix(-0.996195,-0.0871557,-0.0871557,0.996195,100.119,8.21814)" />
		<path id="路径 14" d="M88.9189 15.2888C88.9189 15.2888 87.1181 17.9563 86.2709 18.4948C84.6667 19.5147 83.2199 19.7437 82.2391 19.7437C79.9909 19.7437 84.6244 19.2164 86.2709 17.4303C87.9174 15.6443 90.1682 12.0258 90.1682 12.0258L88.9189 12.0258L87.5387 13.7106C87.5387 13.7106 86.8918 12.9141 85.8656 12.9141C84.8393 12.9141 82.1886 13.3519 81.1734 16.1716C80.1581 18.9913 77 21.1358 77 21.1358C77 21.1358 81.563 23.3995 85.8656 21.1358C90.1682 18.8721 88.9189 15.2888 88.9189 15.2888Z" opacity="0.400000006" fill="rgb(161,167,179)" fill-rule="evenodd" />
		<path id="路径 14" d="M82.5707 19.3293C82.5014 19.3516 82.4348 19.3729 82.3713 19.3931C81.578 19.6462 81.2725 19.7437 82.2391 19.7437C82.3635 19.7437 82.4954 19.74 82.6341 19.7315C83.5894 19.6729 84.8701 19.3853 86.2709 18.4948C86.74 18.1966 87.5016 17.2455 88.0879 16.456C88.5603 15.8199 88.9189 15.2888 88.9189 15.2888C88.9189 15.2888 88.9559 15.3949 88.9952 15.5821C89.0511 15.8481 89.1117 16.2778 89.0777 16.7997C88.9964 18.0451 88.376 19.8151 85.8656 21.1358C82.8533 22.7207 79.7134 22.0864 78.1011 21.5635C77.4104 21.3394 77 21.1358 77 21.1358C77 21.1358 77.3737 20.8821 77.9054 20.4343C78.9192 19.5805 80.5074 18.0213 81.1734 16.1716C82.1886 13.3519 84.8393 12.9141 85.8656 12.9141C86.2945 12.9141 86.6572 13.0533 86.9341 13.2153C87.3196 13.4408 87.5387 13.7106 87.5387 13.7106L88.1789 12.9291L88.9189 12.0258L90.1682 12.0258C90.1682 12.0258 89.9193 12.4259 89.5265 13.0258C89.4572 13.1316 89.3834 13.2436 89.3058 13.3607C88.4997 14.5764 87.2733 16.343 86.2709 17.4303C85.3889 18.387 83.65 18.9826 82.5707 19.3293ZM87.1138 14.7736Q86.2043 16.0272 85.5356 16.7525Q85.0643 17.2638 83.9587 17.7533Q83.517 17.9489 82.9604 18.1448Q82.6328 18.26 82.0674 18.4404Q81.6847 18.5625 81.5434 18.613Q81.4057 18.6623 81.3112 18.7053Q81.0803 18.8106 80.93 18.9644Q80.8597 19.0364 80.8052 19.1187Q80.7744 19.1654 80.7487 19.2153Q80.6855 19.3379 80.6574 19.4681Q80.631 19.5909 80.6359 19.7203Q80.6415 19.8688 80.6866 20.0041Q80.7328 20.1423 80.8203 20.2668Q80.8687 20.3356 80.9268 20.3949Q81.0026 20.4722 81.095 20.5334Q81.3079 20.6743 81.6037 20.7151Q81.8107 20.7437 82.2391 20.7437Q83.2566 20.7437 84.2816 20.4672Q85.4592 20.1496 86.5697 19.4854Q86.0664 19.9002 85.4 20.2509Q85.0988 20.4093 84.7859 20.5396Q83.7399 20.9752 82.563 21.0961Q81.3206 21.2237 79.9855 20.9986Q79.494 20.9158 79.0169 20.7907Q79.2128 20.6126 79.4034 20.4277Q80.2652 19.592 80.8996 18.7278Q81.7163 17.6155 82.1142 16.5103Q82.4268 15.6423 83.0181 15.0548Q83.4254 14.6502 83.9649 14.3787Q84.4666 14.1263 85.0461 14.0056Q85.4853 13.9141 85.8656 13.9141Q85.8808 13.9141 85.8961 13.9146Q86.2117 13.9244 86.521 14.1368Q86.6318 14.2129 86.724 14.3026Q86.7491 14.3271 86.7672 14.3471Q86.7683 14.3483 86.7692 14.3493L87.1138 14.7736Z" opacity="0.400000006" fill="rgb(151,151,151)" fill-opacity="0" fill-rule="evenodd" />
		<path id="路径 14备份" d="M6.62163 1.86459C6.62163 1.86459 5.62114 3.38887 5.15048 3.69662C4.25926 4.27939 3.45548 4.41024 2.91059 4.41024C1.66161 4.41024 4.23575 4.10894 5.15048 3.08833C6.06522 2.06773 7.31567 -6.49762e-16 7.31567 -6.49762e-16L6.62163 -6.49762e-16L5.85484 0.96276C5.85484 0.96276 5.49545 0.507651 4.92532 0.507651C4.35519 0.507651 2.88257 0.757776 2.31854 2.36904C1.75451 3.9803 2.03051e-16 5.20576 2.03051e-16 5.20576C2.03051e-16 5.20576 2.53498 6.49931 4.92532 5.20576C7.31567 3.91221 6.62163 1.86459 6.62163 1.86459Z" opacity="0.400000006" fill="rgb(161,167,179)" fill-rule="evenodd" transform="matrix(0.469472,-0.882947,0.882947,0.469472,90.3569,45.8079)" />
		<path id="路径 14备份" d="M5.70845 2.39983C5.51755 2.65353 5.32772 2.89059 5.15048 3.08833C4.62904 3.67012 3.56838 4.01818 2.98405 4.20992C2.54333 4.35454 2.37358 4.41024 2.91059 4.41024C3.10238 4.41024 3.32625 4.39403 3.57472 4.34761C4.03215 4.26214 4.57296 4.07426 5.15048 3.69662C5.25185 3.63034 5.37778 3.50764 5.513 3.3559C6.00567 2.80302 6.62163 1.86459 6.62163 1.86459C6.62163 1.86459 6.74199 2.2197 6.70984 2.72757C6.68762 3.07843 6.59262 3.5022 6.33485 3.93216C6.06976 4.37433 5.63253 4.82305 4.92532 5.20576C3.52616 5.96293 2.07744 5.83369 1.11656 5.59633C0.435871 5.42818 2.03051e-16 5.20576 2.03051e-16 5.20576C2.03051e-16 5.20576 0.38907 4.93401 0.859677 4.47819C1.38843 3.96605 2.02012 3.22154 2.31854 2.36904C2.88257 0.757776 4.35519 0.507651 4.92532 0.507651C5.13067 0.507651 5.30869 0.566693 5.45241 0.642246C5.52392 0.679836 5.58694 0.721512 5.64062 0.762038C5.77859 0.866202 5.85484 0.96276 5.85484 0.96276L6.48533 0.171139L6.62163 -6.49762e-16L7.31567 -6.49762e-16C7.31567 -6.49762e-16 7.25138 0.106304 7.1413 0.282601C7.1241 0.310137 7.10579 0.33938 7.08644 0.370192C6.97967 0.540133 6.84106 0.757806 6.68244 1C6.46009 1.33948 6.19841 1.72713 5.92994 2.09904C5.85753 2.19935 5.78463 2.29851 5.71187 2.39528C5.71073 2.3968 5.70959 2.39831 5.70845 2.39983ZM5.06829 1.58502Q5.04925 1.56775 5.02703 1.55205Q4.96415 1.50765 4.92532 1.50765Q4.76273 1.50765 4.56622 1.54974Q4.30406 1.60588 4.07932 1.72221Q3.8878 1.82134 3.73367 1.96158Q3.42112 2.24598 3.26238 2.69943Q3.18929 2.90824 3.09427 3.1157Q3.44775 2.98945 3.6764 2.88532Q4.20555 2.64434 4.40581 2.4209Q4.69318 2.10027 5.06829 1.58502Z" opacity="0.400000006" fill="rgb(151,151,151)" fill-opacity="0" fill-rule="evenodd" transform="matrix(0.469472,-0.882947,0.882947,0.469472,90.3569,45.8079)" />
		<path id="路径 14备份 2" d="M7.94596 2.33074C7.94596 2.33074 6.74537 4.23608 6.18058 4.62078C5.11111 5.34923 4.14657 5.51281 3.49271 5.51281C1.99394 5.51281 5.0829 5.13617 6.18058 3.86041C7.27826 2.58466 8.7788 0 8.7788 0L7.94596 0L7.02581 1.20345C7.02581 1.20345 6.59454 0.634563 5.91039 0.634563C5.22623 0.634563 3.45908 0.94722 2.78225 2.96129C2.10541 4.97537 -2.43661e-16 6.5072 -2.43661e-16 6.5072C-2.43661e-16 6.5072 3.04197 8.12414 5.91039 6.5072C8.7788 4.89027 7.94596 2.33074 7.94596 2.33074Z" opacity="0.600000024" fill="rgb(161,167,179)" fill-rule="evenodd" transform="matrix(0.173648,0.984808,-0.984808,0.173648,23.2295,43.7257)" />
		<path id="路径 14备份 2" d="M4.0226 5.10812C3.86086 5.16669 3.71101 5.21791 3.58086 5.2624C3.05199 5.44318 2.8483 5.51281 3.49271 5.51281C3.67031 5.51281 3.87083 5.50074 4.09015 5.46856C4.67829 5.38227 5.4016 5.15137 6.18058 4.62078C6.39713 4.47328 6.70715 4.10223 7.00713 3.70074C7.48953 3.0551 7.94596 2.33074 7.94596 2.33074C7.94596 2.33074 8.03435 2.60239 8.05436 3.02459C8.06886 3.33051 8.04747 3.71546 7.93054 4.1334C7.71349 4.90922 7.16726 5.7987 5.91039 6.5072C4.09786 7.52893 2.21603 7.25941 1.0762 6.92254C0.412197 6.7263 -2.43661e-16 6.5072 -2.43661e-16 6.5072C-2.43661e-16 6.5072 0.365056 6.2416 0.840015 5.78617C1.50569 5.14788 2.38725 4.13671 2.78225 2.96129C3.45908 0.94722 5.22623 0.634563 5.91039 0.634563C6.10439 0.634563 6.27805 0.680306 6.42732 0.745849C6.65918 0.847661 6.83217 0.99725 6.93103 1.09739C6.99297 1.16012 7.02581 1.20345 7.02581 1.20345L7.6445 0.394276L7.94596 0L8.7788 0C8.7788 0 8.68165 0.167351 8.51869 0.437906C8.49086 0.484114 8.46111 0.533333 8.42959 0.585243C8.35414 0.709532 8.26858 0.849246 8.17506 1C7.88433 1.46863 7.51666 2.04393 7.13645 2.59414C7.098 2.64979 7.05941 2.70519 7.02077 2.76019C7.00959 2.7761 6.9984 2.79198 6.98721 2.80783C6.7125 3.1968 6.43566 3.56395 6.18058 3.86041C5.671 4.45267 4.73226 4.85114 4.0226 5.10812ZM6.35253 1.97062Q5.82031 2.7459 5.42255 3.20819Q5.15269 3.52183 4.48042 3.84075Q4.05186 4.04405 3.27253 4.31098Q3.55606 3.79792 3.73016 3.27984Q3.95902 2.59879 4.42666 2.19268Q4.60504 2.03777 4.81815 1.92286Q5.10898 1.76606 5.4459 1.69089Q5.6984 1.63456 5.91039 1.63456Q6.00979 1.63456 6.1321 1.72453Q6.18335 1.76224 6.22582 1.80654Q6.23343 1.81447 6.23863 1.82038L6.35253 1.97062ZM2.16461 5.85145Q2.05161 5.97865 1.93168 6.10554Q1.99429 6.1181 2.05728 6.12947Q2.22043 6.15894 2.3812 6.17942Q2.37237 6.17044 2.36376 6.16124Q2.30449 6.09787 2.25617 6.02426Q2.20134 5.94071 2.16461 5.85145Z" opacity="0.600000024" fill="rgb(151,151,151)" fill-opacity="0" fill-rule="evenodd" transform="matrix(0.173648,0.984808,-0.984808,0.173648,23.2295,43.7257)" />
	</g>
</svg>
